<?xml version="1.0" encoding="UTF-8" standalone="no"?>
<!-- Created with Inkscape (http://www.inkscape.org/) -->

<svg
   xmlns:dc="http://purl.org/dc/elements/1.1/"
   xmlns:cc="http://creativecommons.org/ns#"
   xmlns:rdf="http://www.w3.org/1999/02/22-rdf-syntax-ns#"
   xmlns:svg="http://www.w3.org/2000/svg"
   xmlns="http://www.w3.org/2000/svg"
   xmlns:sodipodi="http://sodipodi.sourceforge.net/DTD/sodipodi-0.dtd"
   xmlns:inkscape="http://www.inkscape.org/namespaces/inkscape"
   width="744.09448819"
   height="1052.3622047"
   id="svg3915"
   version="1.1"
   inkscape:version="0.48.2 r9819"
   sodipodi:docname="logo.svg">
  <defs
     id="defs3917">
    <inkscape:path-effect
       effect="skeletal"
       id="path-effect4767"
       is_visible="true"
       pattern="M 0,5 C 0,2.24 2.24,0 5,0 7.76,0 10,2.24 10,5 10,7.76 7.76,10 5,10 2.24,10 0,7.76 0,5 z"
       copytype="single_stretched"
       prop_scale="1"
       scale_y_rel="false"
       spacing="0"
       normal_offset="0"
       tang_offset="0"
       prop_units="false"
       vertical_pattern="false"
       fuse_tolerance="0" />
    <inkscape:path-effect
       effect="spiro"
       id="path-effect4765"
       is_visible="true" />
  </defs>
  <sodipodi:namedview
     id="base"
     pagecolor="#ffffff"
     bordercolor="#666666"
     borderopacity="1.0"
     inkscape:pageopacity="0.0"
     inkscape:pageshadow="2"
     inkscape:zoom="0.7"
     inkscape:cx="306.67404"
     inkscape:cy="933.32468"
     inkscape:document-units="px"
     inkscape:current-layer="g4748"
     showgrid="false"
     inkscape:window-width="1436"
     inkscape:window-height="856"
     inkscape:window-x="4"
     inkscape:window-y="0"
     inkscape:window-maximized="1" />
  <metadata
     id="metadata3920">
    <rdf:RDF>
      <cc:Work
         rdf:about="">
        <dc:format>image/svg+xml</dc:format>
        <dc:type
           rdf:resource="http://purl.org/dc/dcmitype/StillImage" />
        <dc:title></dc:title>
      </cc:Work>
    </rdf:RDF>
  </metadata>
  <g
     inkscape:label="Layer 1"
     inkscape:groupmode="layer"
     id="layer1">
    <g
       id="g4748">
      <path
         style="fill:#ab6a0f;fill-opacity:1;stroke:#2980b9;stroke-width:0;stroke-linecap:round;stroke-linejoin:round;stroke-miterlimit:4;stroke-opacity:1"
         d="m 146.79387,263.96382 17.17262,-7.07107 c 2.06988,-0.8523 4.04059,1.8021 4.04059,4.04059 l 0,133.34017 c 0,2.23849 -1.97071,3.18829 -4.04059,4.04059 l -17.17262,7.07107 c -2.06988,0.8523 -4.0406,-1.8021 -4.0406,-4.04059 l 0,-133.34017 c 0,-2.23849 1.97072,-3.18829 4.0406,-4.04059 z"
         id="rect6346"
         inkscape:connector-curvature="0"
         sodipodi:nodetypes="sssssssss" />
      <path
         sodipodi:nodetypes="sssssssss"
         inkscape:connector-curvature="0"
         id="path6349"
         d="m 168.76468,264.30567 12.62693,-7.07107 c 1.9531,-1.09373 4.04059,1.8021 4.04059,4.04059 l 0,133.34017 c 0,2.23849 -2.08749,2.94686 -4.04059,4.04059 l -12.62693,7.07107 c -1.95309,1.09373 -4.0406,-1.8021 -4.0406,-4.04059 l 0,-133.34017 c 0,-2.23849 2.08751,-2.94686 4.0406,-4.04059 z"
         style="fill:#e68f14;fill-opacity:1;stroke:#2980b9;stroke-width:0;stroke-linecap:round;stroke-linejoin:round;stroke-miterlimit:4;stroke-opacity:1" />
      <rect
         style="fill:#f0ad4e;fill-opacity:1;stroke:#2980b9;stroke-width:0;stroke-linecap:round;stroke-linejoin:round;stroke-miterlimit:4;stroke-opacity:1;stroke-dasharray:none"
         id="rect6336"
         width="25.253813"
         height="141.42136"
         x="142.75327"
         y="264.4689"
         ry="4.0405955" />
      <g
         id="g7062">
        <path
           style="fill:#1f7f9b;fill-opacity:1;stroke:#2980b9;stroke-width:0;stroke-linecap:round;stroke-linejoin:round;stroke-miterlimit:4;stroke-opacity:1"
           d="m 96.79132,36.17442 17.17262,-7.07107 c 2.06988,-0.8523 4.04059,1.8021 4.04059,4.04059 l 0,133.34017 c 0,2.23849 -1.97071,3.18829 -4.04059,4.04059 l -17.17262,7.07107 c -2.06988,0.8523 -4.0406,-1.8021 -4.0406,-4.04059 l 0,-133.34017 c 0,-2.23849 1.97072,-3.18829 4.0406,-4.04059 z"
           id="path6357"
           inkscape:connector-curvature="0"
           sodipodi:nodetypes="sssssssss" />
        <path
           sodipodi:nodetypes="sssssssss"
           inkscape:connector-curvature="0"
           id="path6359"
           d="m 118.25706,36.51628 17.17262,-7.07107 c 2.06988,-0.8523 4.04059,1.8021 4.04059,4.04059 l 0,133.34017 c 0,2.23849 -1.97071,3.18829 -4.04059,4.04059 l -17.17262,7.07107 c -2.06988,0.8523 -4.0406,-1.8021 -4.0406,-4.04059 l 0,-133.34017 c 0,-2.23849 1.97072,-3.18829 4.0406,-4.04059 z"
           style="fill:#2aaad0;fill-opacity:1;stroke:#2980b9;stroke-width:0;stroke-linecap:round;stroke-linejoin:round;stroke-miterlimit:4;stroke-opacity:1" />
        <rect
           style="fill:#5bc0de;fill-opacity:1;stroke:#2980b9;stroke-width:0;stroke-linecap:round;stroke-linejoin:round;stroke-miterlimit:4;stroke-opacity:1;stroke-dasharray:none"
           id="rect6361"
           width="25.253813"
           height="141.42136"
           x="92.75071"
           y="36.679508"
           ry="4.0405955" />
        <path
           sodipodi:nodetypes="sssssssss"
           inkscape:connector-curvature="0"
           id="path6416"
           d="m 96.79132,36.17442 17.17262,-7.07107 c 2.06988,-0.8523 4.04059,1.8021 4.04059,4.04059 l 0,133.34017 c 0,2.23849 -1.97071,3.18829 -4.04059,4.04059 l -17.17262,7.07107 c -2.06988,0.8523 -4.0406,-1.8021 -4.0406,-4.04059 l 0,-133.34017 c 0,-2.23849 1.97072,-3.18829 4.0406,-4.04059 z"
           style="fill:#1f7f9b;fill-opacity:1;stroke:#2980b9;stroke-width:0;stroke-linecap:round;stroke-linejoin:round;stroke-miterlimit:4;stroke-opacity:1" />
        <path
           style="fill:#2aaad0;fill-opacity:1;stroke:#2980b9;stroke-width:0;stroke-linecap:round;stroke-linejoin:round;stroke-miterlimit:4;stroke-opacity:1"
           d="m 118.25706,36.51628 17.17262,-7.07107 c 2.06988,-0.8523 4.04059,1.8021 4.04059,4.04059 l 0,133.34017 c 0,2.23849 -1.97071,3.18829 -4.04059,4.04059 l -17.17262,7.07107 c -2.06988,0.8523 -4.0406,-1.8021 -4.0406,-4.04059 l 0,-133.34017 c 0,-2.23849 1.97072,-3.18829 4.0406,-4.04059 z"
           id="path6418"
           inkscape:connector-curvature="0"
           sodipodi:nodetypes="sssssssss" />
        <rect
           ry="4.0405955"
           y="36.679508"
           x="92.75071"
           height="141.42136"
           width="25.253813"
           id="rect6420"
           style="fill:#5bc0de;fill-opacity:1;stroke:#2980b9;stroke-width:0;stroke-linecap:round;stroke-linejoin:round;stroke-miterlimit:4;stroke-opacity:1;stroke-dasharray:none" />
        <path
           style="fill:#1f7f9b;fill-opacity:1;stroke:#2980b9;stroke-width:0;stroke-linecap:round;stroke-linejoin:round;stroke-miterlimit:4;stroke-opacity:1"
           d="m 96.79132,36.17442 17.17262,-7.07107 c 2.06988,-0.8523 4.04059,1.8021 4.04059,4.04059 l 0,133.34017 c 0,2.23849 -1.97071,3.18829 -4.04059,4.04059 l -17.17262,7.07107 c -2.06988,0.8523 -4.0406,-1.8021 -4.0406,-4.04059 l 0,-133.34017 c 0,-2.23849 1.97072,-3.18829 4.0406,-4.04059 z"
           id="path6424"
           inkscape:connector-curvature="0"
           sodipodi:nodetypes="sssssssss" />
        <path
           sodipodi:nodetypes="sssssssss"
           inkscape:connector-curvature="0"
           id="path6426"
           d="m 118.25706,36.51628 17.17262,-7.07107 c 2.06988,-0.8523 4.04059,1.8021 4.04059,4.04059 l 0,133.34017 c 0,2.23849 -1.97071,3.18829 -4.04059,4.04059 l -17.17262,7.07107 c -2.06988,0.8523 -4.0406,-1.8021 -4.0406,-4.04059 l 0,-133.34017 c 0,-2.23849 1.97072,-3.18829 4.0406,-4.04059 z"
           style="fill:#2aaad0;fill-opacity:1;stroke:#2980b9;stroke-width:0;stroke-linecap:round;stroke-linejoin:round;stroke-miterlimit:4;stroke-opacity:1" />
        <rect
           style="fill:#5bc0de;fill-opacity:1;stroke:#2980b9;stroke-width:0;stroke-linecap:round;stroke-linejoin:round;stroke-miterlimit:4;stroke-opacity:1;stroke-dasharray:none"
           id="rect6428"
           width="25.253813"
           height="141.42136"
           x="92.75071"
           y="36.679508"
           ry="4.0405955" />
        <g
           transform="translate(0,-1.4285686)"
           id="g6698">
          <g
             id="g6693">
            <path
               sodipodi:nodetypes="sssssssss"
               inkscape:connector-curvature="0"
               id="path6432"
               d="m 96.79132,36.17442 17.17262,-7.07107 c 2.06988,-0.8523 4.04059,1.8021 4.04059,4.04059 l 0,133.34017 c 0,2.23849 -1.97071,3.18829 -4.04059,4.04059 l -17.17262,7.07107 c -2.06988,0.8523 -4.0406,-1.8021 -4.0406,-4.04059 l 0,-133.34017 c 0,-2.23849 1.97072,-3.18829 4.0406,-4.04059 z"
               style="fill:#1f7f9b;fill-opacity:1;stroke:#2980b9;stroke-width:0;stroke-linecap:round;stroke-linejoin:round;stroke-miterlimit:4;stroke-opacity:1" />
            <path
               style="fill:#2aaad0;fill-opacity:1;stroke:#2980b9;stroke-width:0;stroke-linecap:round;stroke-linejoin:round;stroke-miterlimit:4;stroke-opacity:1"
               d="m 118.25706,36.51628 17.17262,-7.07107 c 2.06988,-0.8523 4.04059,1.8021 4.04059,4.04059 l 0,133.34017 c 0,2.23849 -1.97071,3.18829 -4.04059,4.04059 l -17.17262,7.07107 c -2.06988,0.8523 -4.0406,-1.8021 -4.0406,-4.04059 l 0,-133.34017 c 0,-2.23849 1.97072,-3.18829 4.0406,-4.04059 z"
               id="path6434"
               inkscape:connector-curvature="0"
               sodipodi:nodetypes="sssssssss" />
            <rect
               ry="4.0405955"
               y="36.679508"
               x="92.75071"
               height="141.42136"
               width="25.253813"
               id="rect6436"
               style="fill:#5bc0de;fill-opacity:1;stroke:#2980b9;stroke-width:0;stroke-linecap:round;stroke-linejoin:round;stroke-miterlimit:4;stroke-opacity:1;stroke-dasharray:none" />
          </g>
          <text
             xml:space="preserve"
             style="font-size:35px;font-style:normal;font-weight:normal;line-height:125%;letter-spacing:0px;word-spacing:0px;fill:#ffffff;fill-opacity:1;stroke:none;font-family:Sans"
             x="94.004326"
             y="84.286362"
             id="text6644"
             sodipodi:linespacing="125%"><tspan
               sodipodi:role="line"
               id="tspan6646"
               x="94.004326"
               y="84.286362">L</tspan></text>
        </g>
        <g
           id="g7014">
          <g
             id="g6927"
             transform="translate(0,-1.4285736)">
            <path
               style="fill:#b36f0f;fill-opacity:1;stroke:#2980b9;stroke-width:0;stroke-linecap:round;stroke-linejoin:round;stroke-miterlimit:4;stroke-opacity:1"
               d="m 144.3038,33.455849 30.20223,-7.206515 c 3.64039,-0.868625 7.10637,1.836619 7.10637,4.117987 l 0,135.894279 c 0,2.28136 -3.46598,3.24936 -7.10637,4.11798 l -30.20223,7.20652 c -3.64038,0.86862 -7.10638,-1.83662 -7.10638,-4.11799 l 0,-135.894274 c 0,-2.281368 3.466,-3.249361 7.10638,-4.117987 z"
               id="path6598"
               inkscape:connector-curvature="0"
               sodipodi:nodetypes="sssssssss" />
            <path
               sodipodi:nodetypes="sssssssss"
               inkscape:connector-curvature="0"
               id="path6600"
               d="m 182.05653,33.804257 30.20222,-7.206514 c 3.64039,-0.868626 7.10637,1.836618 7.10637,4.117986 l 0,135.894271 c 0,2.28137 -3.46598,3.24936 -7.10637,4.11799 l -30.20222,7.20652 c -3.64039,0.86862 -7.10638,-1.83662 -7.10638,-4.11799 l 0,-135.894276 c 0,-2.281368 3.46599,-3.249361 7.10638,-4.117987 z"
               style="fill:#e68f14;fill-opacity:1;stroke:#2980b9;stroke-width:0;stroke-linecap:round;stroke-linejoin:round;stroke-miterlimit:4;stroke-opacity:1" />
            <rect
               style="fill:#f0ad4e;fill-opacity:1;stroke:#2980b9;stroke-width:0;stroke-linecap:round;stroke-linejoin:round;stroke-miterlimit:4;stroke-opacity:1;stroke-dasharray:none"
               id="rect6602"
               width="44.414974"
               height="144.13025"
               x="137.19742"
               y="33.970612"
               ry="4.1179924" />
          </g>
          <text
             xml:space="preserve"
             style="font-size:35px;font-style:normal;font-weight:normal;line-height:125%;letter-spacing:0px;word-spacing:0px;fill:#ffffff;fill-opacity:1;stroke:none;font-family:Sans"
             x="137.83752"
             y="83.790756"
             id="text6751"
             sodipodi:linespacing="125%"><tspan
               sodipodi:role="line"
               id="tspan6753"
               x="137.83752"
               y="83.790756">ee</tspan></text>
        </g>
        <g
           id="g7022">
          <g
             id="g6907"
             transform="translate(0,-3.5714302)">
            <path
               style="fill:#1f7f9b;fill-opacity:1;stroke:#2980b9;stroke-width:0;stroke-linecap:round;stroke-linejoin:round;stroke-miterlimit:4;stroke-opacity:1"
               d="m 195.09841,49.726309 18.41167,-6.502649 c 2.21923,-0.783786 4.33213,1.657235 4.33213,3.71578 l 0,122.62136 c 0,2.05855 -2.1129,2.932 -4.33213,3.71579 l -18.41167,6.50264 c -2.21922,0.78379 -4.33214,-1.65723 -4.33214,-3.71577 l 0,-122.621371 c 0,-2.058545 2.11292,-2.931994 4.33214,-3.71578 z"
               id="path6898"
               inkscape:connector-curvature="0"
               sodipodi:nodetypes="sssssssss" />
            <path
               sodipodi:nodetypes="sssssssss"
               inkscape:connector-curvature="0"
               id="path6900"
               d="m 218.11295,50.040687 18.41167,-6.502648 c 2.21923,-0.783786 4.33213,1.657235 4.33213,3.715779 l 0,122.621362 c 0,2.05855 -2.1129,2.932 -4.33213,3.71579 l -18.41167,6.50264 c -2.21922,0.78379 -4.33213,-1.65723 -4.33213,-3.71578 l 0,-122.621363 c 0,-2.058545 2.11291,-2.931993 4.33213,-3.71578 z"
               style="fill:#2aaad0;fill-opacity:1;stroke:#2980b9;stroke-width:0;stroke-linecap:round;stroke-linejoin:round;stroke-miterlimit:4;stroke-opacity:1" />
            <rect
               style="fill:#5bc0de;fill-opacity:1;stroke:#2980b9;stroke-width:0;stroke-linecap:round;stroke-linejoin:round;stroke-miterlimit:4;stroke-opacity:1;stroke-dasharray:none"
               id="rect6902"
               width="27.075937"
               height="130.05293"
               x="190.76627"
               y="50.190796"
               ry="3.7157843" />
          </g>
          <text
             xml:space="preserve"
             style="font-size:35px;font-style:normal;font-weight:normal;line-height:125%;letter-spacing:0px;word-spacing:0px;fill:#ffffff;fill-opacity:1;stroke:none;font-family:Sans"
             x="195.0928"
             y="83.790756"
             id="text6768"
             sodipodi:linespacing="125%"><tspan
               sodipodi:role="line"
               id="tspan6770"
               x="195.0928"
               y="83.790756">s</tspan></text>
        </g>
        <g
           id="g7030">
          <g
             id="g6871"
             transform="translate(0,-1.4285711)">
            <path
               sodipodi:nodetypes="sssssssss"
               inkscape:connector-curvature="0"
               id="path6562"
               d="m 243.09841,21.757025 28.12597,-7.789375 c 3.39013,-0.938879 6.61783,1.985164 6.61783,4.451048 l 0,146.885342 c 0,2.46589 -3.2277,3.51217 -6.61783,4.45105 l -28.12597,7.78937 c -3.39012,0.93888 -6.61784,-1.98516 -6.61784,-4.45104 l 0,-146.885347 c 0,-2.465884 3.22772,-3.512168 6.61784,-4.451048 z"
               style="fill:#b36f0f;fill-opacity:1;stroke:#2980b9;stroke-width:0;stroke-linecap:round;stroke-linejoin:round;stroke-miterlimit:4;stroke-opacity:1" />
            <path
               style="fill:#e68f14;fill-opacity:1;stroke:#2980b9;stroke-width:0;stroke-linecap:round;stroke-linejoin:round;stroke-miterlimit:4;stroke-opacity:1"
               d="m 278.25581,22.133612 28.12597,-7.789374 c 3.39012,-0.93888 6.61783,1.985163 6.61783,4.451047 l 0,146.885345 c 0,2.46588 -3.22771,3.51217 -6.61783,4.45105 l -28.12597,7.78937 c -3.39013,0.93888 -6.61784,-1.98516 -6.61784,-4.45105 l 0,-146.88534 c 0,-2.465884 3.22771,-3.512168 6.61784,-4.451048 z"
               id="path6564"
               inkscape:connector-curvature="0"
               sodipodi:nodetypes="sssssssss" />
            <rect
               ry="4.4510536"
               y="22.313423"
               x="236.48055"
               height="155.78745"
               width="41.361649"
               id="rect6566"
               style="fill:#f0ad4e;fill-opacity:1;stroke:#2980b9;stroke-width:0;stroke-linecap:round;stroke-linejoin:round;stroke-miterlimit:4;stroke-opacity:1;stroke-dasharray:none" />
          </g>
          <text
             xml:space="preserve"
             style="font-size:35px;font-style:normal;font-weight:normal;line-height:125%;letter-spacing:0px;word-spacing:0px;fill:#ffffff;fill-opacity:1;stroke:none;font-family:Sans"
             x="242.39575"
             y="83.790756"
             id="text6822"
             sodipodi:linespacing="125%"><tspan
               sodipodi:role="line"
               id="tspan6824"
               x="242.39575"
               y="83.790756">is</tspan></text>
        </g>
        <g
           id="g7038">
          <g
             id="g6912"
             transform="matrix(1,0,0,0.81307456,60,31.863012)">
            <path
               style="fill:#1f7f9b;fill-opacity:1;stroke:#2980b9;stroke-width:0;stroke-linecap:round;stroke-linejoin:round;stroke-miterlimit:4;stroke-opacity:1"
               d="m 243.09841,21.757025 28.12597,-7.789375 c 3.39013,-0.938879 6.61783,1.985164 6.61783,4.451048 l 0,146.885342 c 0,2.46589 -3.2277,3.51217 -6.61783,4.45105 l -28.12597,7.78937 c -3.39012,0.93888 -6.61784,-1.98516 -6.61784,-4.45104 l 0,-146.885347 c 0,-2.465884 3.22772,-3.512168 6.61784,-4.451048 z"
               id="path6914"
               inkscape:connector-curvature="0"
               sodipodi:nodetypes="sssssssss" />
            <path
               sodipodi:nodetypes="sssssssss"
               inkscape:connector-curvature="0"
               id="path6916"
               d="m 278.25581,22.133612 28.12597,-7.789374 c 3.39012,-0.93888 6.61783,1.985163 6.61783,4.451047 l 0,146.885345 c 0,2.46588 -3.22771,3.51217 -6.61783,4.45105 l -28.12597,7.78937 c -3.39013,0.93888 -6.61784,-1.98516 -6.61784,-4.45105 l 0,-146.88534 c 0,-2.465884 3.22771,-3.512168 6.61784,-4.451048 z"
               style="fill:#2aaad0;fill-opacity:1;stroke:#2980b9;stroke-width:0;stroke-linecap:round;stroke-linejoin:round;stroke-miterlimit:4;stroke-opacity:1" />
            <rect
               style="fill:#5bc0de;fill-opacity:1;stroke:#2980b9;stroke-width:0;stroke-linecap:round;stroke-linejoin:round;stroke-miterlimit:4;stroke-opacity:1;stroke-dasharray:none"
               id="rect6918"
               width="41.361649"
               height="155.78745"
               x="236.48055"
               y="22.313423"
               ry="4.4510536" />
          </g>
          <text
             xml:space="preserve"
             style="font-size:35px;font-style:normal;font-weight:normal;line-height:125%;letter-spacing:0px;word-spacing:0px;fill:#ffffff;fill-opacity:1;stroke:none;font-family:Sans"
             x="300"
             y="84.286362"
             id="text6920"
             sodipodi:linespacing="125%"><tspan
               sodipodi:role="line"
               id="tspan6922"
               x="300"
               y="84.286362">m</tspan></text>
        </g>
        <g
           id="g7046">
          <g
             id="g6932"
             transform="matrix(1,0,0,1.1268648,214.28571,-24.023305)">
            <path
               sodipodi:nodetypes="sssssssss"
               inkscape:connector-curvature="0"
               id="path6934"
               d="m 144.3038,33.455849 30.20223,-7.206515 c 3.64039,-0.868625 7.10637,1.836619 7.10637,4.117987 l 0,135.894279 c 0,2.28136 -3.46598,3.24936 -7.10637,4.11798 l -30.20223,7.20652 c -3.64038,0.86862 -7.10638,-1.83662 -7.10638,-4.11799 l 0,-135.894274 c 0,-2.281368 3.466,-3.249361 7.10638,-4.117987 z"
               style="fill:#b36f0f;fill-opacity:1;stroke:#2980b9;stroke-width:0;stroke-linecap:round;stroke-linejoin:round;stroke-miterlimit:4;stroke-opacity:1" />
            <path
               style="fill:#e68f14;fill-opacity:1;stroke:#2980b9;stroke-width:0;stroke-linecap:round;stroke-linejoin:round;stroke-miterlimit:4;stroke-opacity:1"
               d="m 182.05653,33.804257 30.20222,-7.206514 c 3.64039,-0.868626 7.10637,1.836618 7.10637,4.117986 l 0,135.894271 c 0,2.28137 -3.46598,3.24936 -7.10637,4.11799 l -30.20222,7.20652 c -3.64039,0.86862 -7.10638,-1.83662 -7.10638,-4.11799 l 0,-135.894276 c 0,-2.281368 3.46599,-3.249361 7.10638,-4.117987 z"
               id="path6936"
               inkscape:connector-curvature="0"
               sodipodi:nodetypes="sssssssss" />
            <rect
               ry="4.1179924"
               y="33.970612"
               x="137.19742"
               height="144.13025"
               width="44.414974"
               id="rect6938"
               style="fill:#f0ad4e;fill-opacity:1;stroke:#2980b9;stroke-width:0;stroke-linecap:round;stroke-linejoin:round;stroke-miterlimit:4;stroke-opacity:1;stroke-dasharray:none" />
          </g>
          <text
             sodipodi:linespacing="125%"
             id="text6940"
             y="83.790756"
             x="352.12323"
             style="font-size:35px;font-style:normal;font-weight:normal;line-height:125%;letter-spacing:0px;word-spacing:0px;fill:#ffffff;fill-opacity:1;stroke:none;font-family:Sans"
             xml:space="preserve"><tspan
               y="83.790756"
               x="352.12323"
               id="tspan6942"
               sodipodi:role="line">ee</tspan></text>
        </g>
        <g
           id="g7054">
          <g
             id="g6959">
            <path
               sodipodi:nodetypes="sssssssss"
               inkscape:connector-curvature="0"
               id="path6946"
               d="m 415.09841,46.15488 18.41167,-6.502649 c 2.21923,-0.783786 4.33213,1.657235 4.33213,3.71578 l 0,122.621359 c 0,2.05855 -2.1129,2.932 -4.33213,3.71579 l -18.41167,6.50264 c -2.21922,0.78379 -4.33214,-1.65723 -4.33214,-3.71577 l 0,-122.62137 c 0,-2.058545 2.11292,-2.931994 4.33214,-3.71578 z"
               style="fill:#1f7f9b;fill-opacity:1;stroke:#2980b9;stroke-width:0;stroke-linecap:round;stroke-linejoin:round;stroke-miterlimit:4;stroke-opacity:1" />
            <path
               style="fill:#2aaad0;fill-opacity:1;stroke:#2980b9;stroke-width:0;stroke-linecap:round;stroke-linejoin:round;stroke-miterlimit:4;stroke-opacity:1"
               d="m 438.11295,46.469258 18.41167,-6.502648 c 2.21923,-0.783786 4.33213,1.657235 4.33213,3.715779 l 0,122.621361 c 0,2.05855 -2.1129,2.932 -4.33213,3.71579 l -18.41167,6.50264 c -2.21922,0.78379 -4.33213,-1.65723 -4.33213,-3.71578 l 0,-122.621362 c 0,-2.058545 2.11291,-2.931993 4.33213,-3.71578 z"
               id="path6948"
               inkscape:connector-curvature="0"
               sodipodi:nodetypes="sssssssss" />
            <rect
               ry="3.7157843"
               y="46.619366"
               x="410.76627"
               height="130.05293"
               width="27.075937"
               id="rect6950"
               style="fill:#5bc0de;fill-opacity:1;stroke:#2980b9;stroke-width:0;stroke-linecap:round;stroke-linejoin:round;stroke-miterlimit:4;stroke-opacity:1;stroke-dasharray:none" />
          </g>
          <text
             xml:space="preserve"
             style="font-size:35px;font-style:normal;font-weight:normal;line-height:125%;letter-spacing:0px;word-spacing:0px;fill:#ffffff;fill-opacity:1;stroke:none;font-family:Sans"
             x="415.52005"
             y="84.286362"
             id="text6952"
             sodipodi:linespacing="125%"><tspan
               sodipodi:role="line"
               id="tspan6954"
               x="415.52005"
               y="84.286362">r</tspan></text>
        </g>
      </g>
    </g>
  </g>
</svg>
